<svg xmlns="http://www.w3.org/2000/svg" version="1.1" xmlns:xlink="http://www.w3.org/1999/xlink" xmlns:svgjs="http://svgjs.com/svgjs" width="1440" height="560" preserveAspectRatio="none" viewBox="0 0 1440 560"><g mask="url(&quot;#SvgjsMask3651&quot;)" fill="none"><rect width="1440" height="560" x="0" y="0" fill="url(#SvgjsLinearGradient3652)"></rect><path d="M -244.13289030815554,125 C -100.13,195 187.87,455.2 475.86710969184446,475 C 763.87,494.8 907.87,235.4 1195.8671096918445,224 C 1483.87,212.6 1867.04,431 1915.8671096918445,418 C 1964.69,405 1535.17,210.8 1440,159" stroke="rgba(255, 255, 255, 1)" stroke-width="2"></path><path d="M -251.762480656209,237 C -107.76,270.2 180.24,428.4 468.237519343791,403 C 756.24,377.6 900.24,111 1188.237519343791,110 C 1476.24,109 1857.89,370.4 1908.237519343791,398 C 1958.59,425.6 1533.65,278 1440,248" stroke="rgba(255, 255, 255, 1)" stroke-width="2"></path><path d="M -291.82769310497116,179 C -147.83,230.6 140.17,422.2 428.17230689502884,437 C 716.17,451.8 860.17,267 1148.172306895029,253 C 1436.17,239 1809.81,377.2 1868.172306895029,367 C 1926.54,356.8 1525.63,235 1440,202" stroke="rgba(255, 255, 255, 1)" stroke-width="2"></path><path d="M -59.88335272615507,214 C 84.12,262.6 372.12,451 660.1166472738449,457 C 948.12,463 1092.12,269.2 1380.116647273845,244 C 1668.12,218.8 2088.14,338.8 2100.116647273845,331 C 2112.09,323.2 1572.02,230.2 1440,205" stroke="rgba(255, 255, 255, 1)" stroke-width="2"></path></g><defs><mask id="SvgjsMask3651"><rect width="1440" height="560" fill="#ffffff"></rect></mask><linearGradient x1="15.28%" y1="-39.29%" x2="84.72%" y2="139.29%" gradientUnits="userSpaceOnUse" id="SvgjsLinearGradient3652"><stop stop-color="rgba(14, 42, 71, 1)" offset="0"></stop><stop stop-color="rgba(134, 201, 230, 1)" offset="0.47"></stop></linearGradient></defs></svg>